<svg width="51" height="16" viewBox="0 0 51 16" fill="none" xmlns="http://www.w3.org/2000/svg">
<path fill-rule="evenodd" clip-rule="evenodd" d="M51 16H0V0H51V16ZM32.1435 8.72853L34.1499 11.0499H36.3479L33.3517 7.77429L35.8464 5.18885H33.5708L32.1435 6.79563V2H30.3688V11.0499H32.1435V8.72853ZM46.6783 6.83247C46.4295 6.71544 46.1256 6.65678 45.7657 6.65678C44.7711 6.65678 44.2743 7.43505 44.2743 8.99129V11.0376H42.4867V5.17575H44.2743V6.59476C44.4197 6.08368 44.6535 5.69946 44.975 5.43929C45.2958 5.18024 45.6285 5.05086 45.9709 5.05086C46.3651 5.05086 46.7084 5.12186 47 5.2636L46.6783 6.83247ZM37.5308 8.69151H41.9278C41.9456 8.48971 41.954 8.31093 41.954 8.15068C41.954 7.23966 41.6604 6.49563 41.0733 5.92253C40.4855 5.34998 39.7549 5.06427 38.8805 5.06427C37.9978 5.06427 37.2548 5.34437 36.6498 5.90428C36.0455 6.46448 35.743 7.19672 35.743 8.10156C35.743 9.00472 36.0455 9.74342 36.6498 10.3162C37.2548 10.8893 37.9978 11.1756 38.8805 11.1756C40.1575 11.1756 41.0707 10.7796 41.6196 9.98422L40.3211 9.11783C40.0292 9.48662 39.5922 9.67017 39.0096 9.67017C38.6577 9.67017 38.3342 9.58681 38.0381 9.4187C37.7428 9.25226 37.5737 9.00893 37.5308 8.69151ZM38.8932 6.59384C39.1851 6.59384 39.4574 6.68028 39.7101 6.85147C39.9623 7.02238 40.1109 7.27186 40.1538 7.59825H37.5562C37.6246 7.26373 37.7914 7.01283 38.0574 6.84473C38.3233 6.67831 38.6019 6.59384 38.8932 6.59384ZM28.6911 10.3036C28.0861 10.868 27.3469 11.1515 26.4725 11.1515C25.5981 11.1515 24.8606 10.868 24.2608 10.3036C23.6607 9.73865 23.3602 9.00444 23.3602 8.10156C23.3602 7.19672 23.6607 6.46504 24.2608 5.90372C24.8606 5.34465 25.5981 5.06427 26.4725 5.06427C27.3469 5.06427 28.0861 5.34465 28.6911 5.90372C29.2943 6.46504 29.5971 7.19672 29.5971 8.10156C29.5971 9.00444 29.2943 9.73865 28.6911 10.3036ZM25.5142 7.14593C25.7759 6.89532 26.095 6.76931 26.4723 6.76931C26.8495 6.76931 27.1713 6.89532 27.4367 7.14593C27.7023 7.39766 27.8352 7.71506 27.8352 8.10066C27.8352 8.5017 27.7044 8.82696 27.4433 9.07336C27.1816 9.31976 26.8581 9.44268 26.4723 9.44268C26.095 9.44268 25.7759 9.31976 25.5142 9.07336C25.2526 8.82696 25.1223 8.5017 25.1223 8.10066C25.1223 7.71506 25.2526 7.39766 25.5142 7.14593ZM22.4731 3.74504C22.2583 3.94655 21.997 4.04619 21.6887 4.04619C21.3805 4.04619 21.1162 3.94655 20.898 3.74504C20.6789 3.54437 20.5699 3.30216 20.5699 3.01701C20.5699 2.73355 20.6789 2.49246 20.898 2.29516C21.1162 2.1001 21.3805 2.00075 21.6887 2.00075C21.997 2.00075 22.2583 2.1001 22.4731 2.29516C22.687 2.49246 22.7946 2.73355 22.7946 3.01701C22.7946 3.30216 22.687 3.54437 22.4731 3.74504ZM22.589 11.4525C22.589 12.2723 22.4124 12.9018 22.0616 13.3407C21.71 13.7805 21.1266 14 20.3129 14H19.2194V12.4188H20.0046C20.544 12.4188 20.8054 12.1095 20.7884 11.4898V5.18871H22.589V11.4525ZM18.4351 11.0506H16.6608V2.94236H18.4351V5.18903H19.807V6.7015H18.4351V11.0506ZM15.7058 6.84589C15.4574 6.72886 15.1534 6.6702 14.7934 6.6702C13.7991 6.6702 13.302 7.44847 13.302 9.00444V11.051H11.515V5.18916H13.302V6.60789C13.4469 6.0971 13.6813 5.71259 14.0024 5.4527C14.3239 5.19365 14.656 5.06427 14.9987 5.06427C15.3932 5.06427 15.7365 5.13472 16.0278 5.27701L15.7058 6.84589ZM10.5839 11.05H8.80899V10.3843C8.63762 10.6363 8.37395 10.8283 8.01799 10.9624C7.6626 11.0966 7.34372 11.1639 7.06108 11.1639C6.25455 11.1639 5.54319 10.8819 4.92557 10.3155C4.30881 9.75109 4 9.01577 4 8.11345C4 7.21029 4.30881 6.47608 4.92557 5.91083C5.54319 5.34475 6.25455 5.06352 7.06108 5.06352C7.34372 5.06352 7.65368 5.12162 7.99269 5.23894C8.33082 5.35597 8.60312 5.55636 8.80899 5.84207V5.18926H10.5839V11.05ZM7.35604 6.71983C6.96212 6.71983 6.61305 6.85173 6.30856 7.11497C6.00406 7.37877 5.85167 7.71077 5.85167 8.11292C5.85167 8.51424 6.00406 8.84736 6.30856 9.11004C6.61305 9.37412 6.96212 9.50602 7.35604 9.50602C7.74191 9.50602 8.08062 9.37805 8.37247 9.12238C8.66317 8.86812 8.80923 8.53192 8.80923 8.11292C8.80923 7.69449 8.66317 7.35744 8.37247 7.10262C8.08062 6.84724 7.74191 6.71983 7.35604 6.71983Z" fill="white"/>
</svg>
