<svg width="32" height="32" viewBox="0 0 32 32" fill="none" xmlns="http://www.w3.org/2000/svg">
<path fill-rule="evenodd" clip-rule="evenodd" d="M23.0834 19.9061H19.125V29.3332H25.4271C27.5808 29.3332 29.3334 27.5806 29.3334 25.4269V6.57275C29.3334 4.41903 27.5808 2.6665 25.4271 2.6665H6.57294C4.41921 2.6665 2.66669 4.41903 2.66669 6.57275V25.4269C2.66669 27.5806 4.41921 29.3332 6.57294 29.3332H14.4375V19.9061H11.3125V15.2186H14.4375V12.0415C14.4375 9.45667 16.5402 7.354 19.125 7.354H23.8646V12.0415H19.125V15.2186H23.8646L23.0834 19.9061ZM20.125 14.2186H25.0451L23.9305 20.9061H20.125V28.3332H25.4271C27.0285 28.3332 28.3334 27.0284 28.3334 25.4269V6.57275C28.3334 4.97131 27.0285 3.6665 25.4271 3.6665H6.57294C4.97149 3.6665 3.66669 4.97131 3.66669 6.57275V25.4269C3.66669 27.0284 4.97149 28.3332 6.57294 28.3332H13.4375V20.9061H10.3125V14.2186H13.4375V12.0415C13.4375 8.90438 15.9879 6.354 19.125 6.354H24.8646V13.0415H20.125V14.2186Z" fill="white"/>
<path fill-rule="evenodd" clip-rule="evenodd" d="M23.0834 19.9061H19.125V29.3332H25.4271C27.5808 29.3332 29.3334 27.5806 29.3334 25.4269V6.57275C29.3334 4.41903 27.5808 2.6665 25.4271 2.6665H6.57294C4.41921 2.6665 2.66669 4.41903 2.66669 6.57275V25.4269C2.66669 27.5806 4.41921 29.3332 6.57294 29.3332H14.4375V19.9061H11.3125V15.2186H14.4375V12.0415C14.4375 9.45667 16.5402 7.354 19.125 7.354H23.8646V12.0415H19.125V15.2186H23.8646L23.0834 19.9061ZM20.125 14.2186H25.0451L23.9305 20.9061H20.125V28.3332H25.4271C27.0285 28.3332 28.3334 27.0284 28.3334 25.4269V6.57275C28.3334 4.97131 27.0285 3.6665 25.4271 3.6665H6.57294C4.97149 3.6665 3.66669 4.97131 3.66669 6.57275V25.4269C3.66669 27.0284 4.97149 28.3332 6.57294 28.3332H13.4375V20.9061H10.3125V14.2186H13.4375V12.0415C13.4375 8.90438 15.9879 6.354 19.125 6.354H24.8646V13.0415H20.125V14.2186Z" fill="url(#paint0_linear_1_628)"/>
<defs>
<linearGradient id="paint0_linear_1_628" x1="16" y1="2.6665" x2="16" y2="29.3332" gradientUnits="userSpaceOnUse">
<stop stop-color="white"/>
<stop offset="1" stop-color="white" stop-opacity="0"/>
</linearGradient>
</defs>
</svg>
