<svg width="126" height="114" viewBox="0 0 126 114" fill="none" xmlns="http://www.w3.org/2000/svg">
<path d="M62.5685 -0.000183105L6 56.5684L62.5685 113.137L119.137 56.5684L62.5685 -0.000183105ZM75.8449 69.8447L49.2906 69.8475L49.2897 43.2895L75.8477 43.2905L75.8449 69.8447ZM61.8008 28.9243L48.3626 42.3624L34.9244 55.8006L22.1258 43.0019L49.0021 16.1256L61.8008 28.9243ZM63.3363 84.2125L76.7745 70.7743L90.2126 57.3361L103.011 70.1341L76.1343 97.0105L63.3363 84.2125ZM90.2101 55.7987L76.7748 42.3634L63.3357 28.9242L76.1346 16.1253L103.01 43.0004L90.2101 55.7987ZM34.9219 57.338L48.361 70.7771L61.7964 84.2125L49.0006 97.0083L22.1261 70.1338L34.9219 57.338Z" fill="white"/>
<rect y="43" width="126" height="27" fill="#40474E"/>
<path d="M19.6654 62.192C18.0228 62.192 16.6521 61.6373 15.5534 60.528C14.4654 59.408 13.9214 58.032 13.9214 56.4C13.9214 54.7787 14.4708 53.408 15.5694 52.288C16.6681 51.168 18.0654 50.608 19.7614 50.608C20.7321 50.608 21.5481 50.768 22.2094 51.088C22.8708 51.3973 23.5001 51.8453 24.0974 52.432L22.6254 54.128C22.1454 53.6907 21.6921 53.376 21.2654 53.184C20.8494 52.9813 20.3428 52.88 19.7454 52.88C18.8068 52.88 18.0281 53.2213 17.4094 53.904C16.8014 54.576 16.4974 55.408 16.4974 56.4C16.4974 57.3813 16.8014 58.2133 17.4094 58.896C18.0281 59.5787 18.8068 59.92 19.7454 59.92C20.3428 59.92 20.8601 59.8133 21.2974 59.6C21.7348 59.3867 22.1988 59.056 22.6894 58.608L24.2574 60.288C23.6494 60.9387 22.9881 61.4187 22.2734 61.728C21.5694 62.0373 20.7001 62.192 19.6654 62.192ZM27.4299 62V50.8H35.8779V52.992H29.8779V55.264H35.1579V57.456H29.8779V59.808H35.9579V62H27.4299ZM39.3487 62V50.8H44.4687C45.8874 50.8 46.9754 51.1787 47.7327 51.936C48.3727 52.576 48.6927 53.44 48.6927 54.528C48.6927 56.2453 47.8927 57.4027 46.2927 58L49.0287 62H46.1487L43.7167 58.416H41.8127V62H39.3487ZM41.8127 56.24H44.3087C44.906 56.24 45.37 56.096 45.7007 55.808C46.0314 55.5093 46.1967 55.1147 46.1967 54.624C46.1967 54.1013 46.026 53.7067 45.6847 53.44C45.3434 53.1627 44.8687 53.024 44.2607 53.024H41.8127V56.24ZM51.1512 62L55.9512 50.72H58.2232L63.0232 62H60.4472L59.4232 59.488H54.6872L53.6632 62H51.1512ZM55.5672 57.312H58.5432L57.0552 53.68L55.5672 57.312ZM65.9518 62V50.8H68.6078L71.5518 55.536L74.4958 50.8H77.1518V62H74.7038V54.688L71.5518 59.472H71.4878L68.3678 54.736V62H65.9518ZM81.1544 62V50.8H83.6184V62H81.1544ZM92.8654 62.192C91.2228 62.192 89.8521 61.6373 88.7534 60.528C87.6654 59.408 87.1214 58.032 87.1214 56.4C87.1214 54.7787 87.6708 53.408 88.7694 52.288C89.8681 51.168 91.2654 50.608 92.9614 50.608C93.9321 50.608 94.7481 50.768 95.4094 51.088C96.0708 51.3973 96.7001 51.8453 97.2974 52.432L95.8254 54.128C95.3454 53.6907 94.8921 53.376 94.4654 53.184C94.0494 52.9813 93.5428 52.88 92.9454 52.88C92.0068 52.88 91.2281 53.2213 90.6094 53.904C90.0014 54.576 89.6974 55.408 89.6974 56.4C89.6974 57.3813 90.0014 58.2133 90.6094 58.896C91.2281 59.5787 92.0068 59.92 92.9454 59.92C93.5428 59.92 94.0601 59.8133 94.4974 59.6C94.9348 59.3867 95.3988 59.056 95.8894 58.608L97.4574 60.288C96.8494 60.9387 96.1881 61.4187 95.4734 61.728C94.7694 62.0373 93.9001 62.192 92.8654 62.192ZM99.6699 62L104.47 50.72H106.742L111.542 62H108.966L107.942 59.488H103.206L102.182 62H99.6699ZM104.086 57.312H107.062L105.574 53.68L104.086 57.312Z" fill="white"/>
</svg>
