<svg width="32" height="32" viewBox="0 0 32 32" fill="none" xmlns="http://www.w3.org/2000/svg">
<path fill-rule="evenodd" clip-rule="evenodd" d="M24.3333 3.66699H7.66663C5.45749 3.66699 3.66663 5.45785 3.66663 7.66699V24.3337C3.66663 26.5428 5.45748 28.3337 7.66662 28.3337H24.3333C26.5424 28.3337 28.3333 26.5428 28.3333 24.3337V7.66699C28.3333 5.45785 26.5424 3.66699 24.3333 3.66699ZM7.66663 2.66699C4.9052 2.66699 2.66663 4.90557 2.66663 7.66699V24.3337C2.66663 27.0951 4.9052 29.3337 7.66662 29.3337H24.3333C27.0947 29.3337 29.3333 27.0951 29.3333 24.3337V7.66699C29.3333 4.90557 27.0947 2.66699 24.3333 2.66699H7.66663Z" fill="white"/>
<path fill-rule="evenodd" clip-rule="evenodd" d="M24.3333 3.66699H7.66663C5.45749 3.66699 3.66663 5.45785 3.66663 7.66699V24.3337C3.66663 26.5428 5.45748 28.3337 7.66662 28.3337H24.3333C26.5424 28.3337 28.3333 26.5428 28.3333 24.3337V7.66699C28.3333 5.45785 26.5424 3.66699 24.3333 3.66699ZM7.66663 2.66699C4.9052 2.66699 2.66663 4.90557 2.66663 7.66699V24.3337C2.66663 27.0951 4.9052 29.3337 7.66662 29.3337H24.3333C27.0947 29.3337 29.3333 27.0951 29.3333 24.3337V7.66699C29.3333 4.90557 27.0947 2.66699 24.3333 2.66699H7.66663Z" fill="url(#paint0_linear_1_633)"/>
<path fill-rule="evenodd" clip-rule="evenodd" d="M16.4442 22.1112C13.3146 22.1112 10.7776 19.5741 10.7776 16.4445C10.7776 13.3149 13.3146 10.7778 16.4442 10.7778C19.5738 10.7778 22.1109 13.3149 22.1109 16.4445C22.1109 19.5741 19.5738 22.1112 16.4442 22.1112ZM16.4442 23.1112C12.7623 23.1112 9.77757 20.1264 9.77757 16.4445C9.77757 12.7626 12.7623 9.77783 16.4442 9.77783C20.1261 9.77783 23.1109 12.7626 23.1109 16.4445C23.1109 20.1264 20.1261 23.1112 16.4442 23.1112Z" fill="white"/>
<path fill-rule="evenodd" clip-rule="evenodd" d="M16.4442 22.1112C13.3146 22.1112 10.7776 19.5741 10.7776 16.4445C10.7776 13.3149 13.3146 10.7778 16.4442 10.7778C19.5738 10.7778 22.1109 13.3149 22.1109 16.4445C22.1109 19.5741 19.5738 22.1112 16.4442 22.1112ZM16.4442 23.1112C12.7623 23.1112 9.77757 20.1264 9.77757 16.4445C9.77757 12.7626 12.7623 9.77783 16.4442 9.77783C20.1261 9.77783 23.1109 12.7626 23.1109 16.4445C23.1109 20.1264 20.1261 23.1112 16.4442 23.1112Z" fill="url(#paint1_linear_1_633)"/>
<path fill-rule="evenodd" clip-rule="evenodd" d="M23.9996 8.11168C24.4292 8.11168 24.7774 8.4599 24.7774 8.88946C24.7774 9.31901 24.4292 9.66724 23.9996 9.66724C23.5701 9.66724 23.2219 9.31901 23.2219 8.88946C23.2219 8.4599 23.5701 8.11168 23.9996 8.11168ZM23.9996 7.11168C24.9815 7.11168 25.7774 7.90762 25.7774 8.88946C25.7774 9.8713 24.9815 10.6672 23.9996 10.6672C23.0178 10.6672 22.2219 9.8713 22.2219 8.88946C22.2219 7.90762 23.0178 7.11168 23.9996 7.11168Z" fill="white"/>
<path fill-rule="evenodd" clip-rule="evenodd" d="M23.9996 8.11168C24.4292 8.11168 24.7774 8.4599 24.7774 8.88946C24.7774 9.31901 24.4292 9.66724 23.9996 9.66724C23.5701 9.66724 23.2219 9.31901 23.2219 8.88946C23.2219 8.4599 23.5701 8.11168 23.9996 8.11168ZM23.9996 7.11168C24.9815 7.11168 25.7774 7.90762 25.7774 8.88946C25.7774 9.8713 24.9815 10.6672 23.9996 10.6672C23.0178 10.6672 22.2219 9.8713 22.2219 8.88946C22.2219 7.90762 23.0178 7.11168 23.9996 7.11168Z" fill="url(#paint2_linear_1_633)"/>
<defs>
<linearGradient id="paint0_linear_1_633" x1="16" y1="2.66699" x2="16" y2="29.3337" gradientUnits="userSpaceOnUse">
<stop stop-color="white"/>
<stop offset="1" stop-color="white" stop-opacity="0"/>
</linearGradient>
<linearGradient id="paint1_linear_1_633" x1="16.4442" y1="9.77783" x2="16.4442" y2="23.1112" gradientUnits="userSpaceOnUse">
<stop stop-color="white"/>
<stop offset="1" stop-color="white" stop-opacity="0"/>
</linearGradient>
<linearGradient id="paint2_linear_1_633" x1="23.9996" y1="10.6672" x2="23.9996" y2="7.11168" gradientUnits="userSpaceOnUse">
<stop stop-color="white"/>
<stop offset="1" stop-color="white" stop-opacity="0"/>
</linearGradient>
</defs>
</svg>
