<svg width="96" height="86" viewBox="0 0 96 86" fill="none" xmlns="http://www.w3.org/2000/svg">
<path d="M47.6721 0L4.67206 43L47.6721 86L90.6721 43L47.6721 0ZM57.7639 53.0919L37.579 53.094L37.5783 32.9062L57.7661 32.9069L57.7639 53.0919ZM47.0885 21.9866L36.8736 32.2015L26.6587 42.4164L16.9299 32.6876L37.3597 12.2578L47.0885 21.9866ZM48.2557 64.0134L58.4705 53.7985L68.6854 43.5836L78.4137 53.3119L57.984 73.7417L48.2557 64.0134ZM68.6835 42.415L58.4708 32.2022L48.2552 21.9866L57.9842 12.2576L78.413 32.6865L68.6835 42.415ZM26.6567 43.585L36.8724 53.8006L47.0851 64.0134L37.3585 73.74L16.9302 53.3116L26.6567 43.585Z" fill="#AA182C"/>
<rect y="32" width="96" height="22" fill="#40474E"/>
<path d="M15.3542 47C14.109 47 13.0699 46.6169 12.2371 45.8508C11.4124 45.0773 11 44.1271 11 43C11 41.8803 11.4164 40.9337 12.2492 40.1602C13.0821 39.3867 14.1413 39 15.4269 39C16.1627 39 16.7813 39.1105 17.2826 39.3315C17.7839 39.5451 18.261 39.8545 18.7138 40.2597L17.598 41.4309C17.2341 41.1289 16.8905 40.9116 16.567 40.779C16.2517 40.639 15.8676 40.5691 15.4148 40.5691C14.7033 40.5691 14.113 40.8048 13.644 41.2762C13.1831 41.7403 12.9527 42.3149 12.9527 43C12.9527 43.6777 13.1831 44.2523 13.644 44.7238C14.113 45.1952 14.7033 45.4309 15.4148 45.4309C15.8676 45.4309 16.2598 45.3573 16.5913 45.2099C16.9228 45.0626 17.2745 44.8343 17.6465 44.5249L18.8351 45.6851C18.3742 46.1344 17.8729 46.4659 17.3311 46.6796C16.7975 46.8932 16.1385 47 15.3542 47Z" fill="white"/>
<path d="M21.24 46.8674V39.1326H27.6439V40.6464H23.0956V42.2155H27.0981V43.7293H23.0956V45.3536H27.7045V46.8674H21.24Z" fill="white"/>
<path d="M30.2748 46.8674V39.1326H34.156C35.2314 39.1326 36.0561 39.3941 36.6302 39.9171C37.1153 40.3591 37.3579 40.9558 37.3579 41.7072C37.3579 42.8932 36.7515 43.6924 35.5386 44.105L37.6126 46.8674H35.4295L33.5859 44.3923H32.1426V46.8674H30.2748ZM32.1426 42.8895H34.0347C34.4875 42.8895 34.8392 42.7901 35.0899 42.5912C35.3405 42.3849 35.4658 42.1123 35.4658 41.7735C35.4658 41.4125 35.3365 41.14 35.0777 40.9558C34.819 40.7643 34.4592 40.6685 33.9983 40.6685H32.1426V42.8895Z" fill="white"/>
<path d="M39.2215 46.8674L42.8601 39.0773H44.5824L48.221 46.8674H46.2683L45.492 45.1326H41.902L41.1257 46.8674H39.2215ZM42.569 43.6298H44.825L43.697 41.1215L42.569 43.6298Z" fill="white"/>
<path d="M50.441 46.8674V39.1326H52.4543L54.686 42.4033L56.9176 39.1326H58.931V46.8674H57.0753V41.8177L54.686 45.1215H54.6375L52.2724 41.8508V46.8674H50.441Z" fill="white"/>
<path d="M61.9651 46.8674V39.1326H63.8329V46.8674H61.9651Z" fill="white"/>
<path d="M70.8425 47C69.5973 47 68.5583 46.6169 67.7255 45.8508C66.9007 45.0773 66.4883 44.1271 66.4883 43C66.4883 41.8803 66.9048 40.9337 67.7376 40.1602C68.5704 39.3867 69.6297 39 70.9153 39C71.6511 39 72.2696 39.1105 72.771 39.3315C73.2723 39.5451 73.7493 39.8545 74.2021 40.2597L73.0863 41.4309C72.7224 41.1289 72.3788 40.9116 72.0554 40.779C71.74 40.639 71.356 40.5691 70.9032 40.5691C70.1916 40.5691 69.6014 40.8048 69.1324 41.2762C68.6715 41.7403 68.4411 42.3149 68.4411 43C68.4411 43.6777 68.6715 44.2523 69.1324 44.7238C69.6014 45.1952 70.1916 45.4309 70.9032 45.4309C71.356 45.4309 71.7481 45.3573 72.0796 45.2099C72.4111 45.0626 72.7629 44.8343 73.1348 44.5249L74.3234 45.6851C73.8625 46.1344 73.3612 46.4659 72.8195 46.6796C72.2858 46.8932 71.6268 47 70.8425 47Z" fill="white"/>
<path d="M76.0006 46.8674L79.6392 39.0773H81.3614L85 46.8674H83.0473L82.2711 45.1326H78.681L77.9048 46.8674H76.0006ZM79.3481 43.6298H81.604L80.476 41.1215L79.3481 43.6298Z" fill="white"/>
</svg>
