<svg width="32" height="32" viewBox="0 0 32 32" fill="none" xmlns="http://www.w3.org/2000/svg">
<path d="M10.5 13.8824C10.5 11.4348 12.4264 8.5 16.2472 8.5C19.3178 8.5 21.3384 10.8801 21.3383 13.4358C21.3383 16.8158 19.5843 19.3407 16.9993 19.3407C16.1308 19.3407 15.3143 18.8378 15.0347 18.2669C15.0347 18.2669 14.5679 20.2517 14.4694 20.6351C14.1383 21.9228 13.1955 23.2113 13.0358 23.4296C13.0276 23.4407 13.0215 23.4491 13.0176 23.4545C12.962 23.5316 12.8394 23.5074 12.8266 23.4051C12.8255 23.396 12.8237 23.3828 12.8213 23.3656C12.7787 23.0544 12.5594 21.4514 12.8507 20.1312C13.0047 19.4315 13.8849 15.4362 13.8849 15.4362C13.8849 15.4362 13.6285 14.8861 13.6285 14.0728C13.6285 12.796 14.3192 11.8427 15.1792 11.8427C15.9105 11.8427 16.2636 12.4311 16.2636 13.1363C16.2636 13.6391 16.0728 14.3011 15.872 14.9981C15.7583 15.3928 15.6413 15.7988 15.5539 16.1935C15.3521 17.1077 15.9816 17.8532 16.823 17.8532C18.3463 17.8532 19.3724 15.7566 19.3724 13.2724C19.3724 11.3843 18.1859 9.97048 16.0266 9.97048C13.5876 9.97048 12.0671 11.9197 12.0671 14.097C12.0671 14.8476 12.2741 15.3774 12.5979 15.7867C12.7464 15.975 12.7674 16.0507 12.7136 16.2668C12.693 16.3504 12.6589 16.4957 12.6258 16.6366C12.596 16.7634 12.5671 16.8867 12.5496 16.9583C12.496 17.1767 12.3308 17.2544 12.1465 17.1738C11.0236 16.6823 10.5 15.3642 10.5 13.8824Z" fill="white"/>
<path fill-rule="evenodd" clip-rule="evenodd" d="M2.5 7.5C2.5 4.73858 4.73858 2.5 7.5 2.5H24.5C27.2614 2.5 29.5 4.73858 29.5 7.5V24.5C29.5 27.2614 27.2614 29.5 24.5 29.5H7.5C4.73858 29.5 2.5 27.2614 2.5 24.5V7.5ZM7.5 3.5C5.29086 3.5 3.5 5.29086 3.5 7.5V24.5C3.5 26.7091 5.29086 28.5 7.5 28.5H24.5C26.7091 28.5 28.5 26.7091 28.5 24.5V7.5C28.5 5.29086 26.7091 3.5 24.5 3.5H7.5Z" fill="white"/>
</svg>
