<svg width="32" height="32" viewBox="0 0 32 32" fill="none" xmlns="http://www.w3.org/2000/svg">
<g clip-path="url(#clip0_1_630)">
<path fill-rule="evenodd" clip-rule="evenodd" d="M30.3762 8.58242L30.375 8.5782C30.0988 7.55169 29.2869 6.73988 28.2603 6.46339L28.2564 6.46234C27.7361 6.31994 26.732 6.19577 25.4332 6.09883C24.1628 6.00402 22.6924 5.94032 21.2906 5.8977C19.8904 5.85512 18.5669 5.83381 17.593 5.82314C17.1062 5.81782 16.7072 5.81515 16.4302 5.81382C16.2917 5.81316 16.1837 5.81283 16.1105 5.81266L16 5.8125L15.9997 4.8125C15.9997 4.8125 26.0162 4.8125 28.5204 5.4978C29.891 5.86694 30.9718 6.9475 31.3407 8.31834C32.0262 10.8222 31.9999 16.0415 31.9999 16.0415C31.9999 16.0415 31.9999 21.2341 31.3409 23.7382C30.9718 25.1088 29.8912 26.1896 28.5204 26.5585C26.0162 27.2177 15.9999 27.2177 15.9999 27.2177L16 26.2177L16.1109 26.2175C16.1841 26.2174 16.2921 26.217 16.4306 26.2164C16.7077 26.2151 17.1067 26.2126 17.5936 26.2074C18.5677 26.1972 19.8914 26.1767 21.2919 26.1357C22.6939 26.0947 24.1649 26.0334 25.436 25.9422C26.7326 25.8491 27.7388 25.7297 28.2633 25.5921C29.2876 25.3154 30.0976 24.5053 30.3746 23.4809C30.6742 22.3403 30.8364 20.5126 30.9188 18.8997C30.9593 18.1072 30.9796 17.3907 30.9898 16.8724C30.9948 16.6134 30.9974 16.4044 30.9986 16.2607C30.9993 16.1889 30.9996 16.1334 30.9997 16.0962L30.9999 16.0544L30.9999 16.0364L30.9999 16.0235L31 15.9816C31 15.9443 31 15.8886 30.9997 15.8165C30.9991 15.6723 30.9975 15.4624 30.9934 15.2024C30.9853 14.682 30.9674 13.9628 30.9286 13.1677C30.8493 11.5465 30.6867 9.71643 30.3762 8.58242ZM0 16.0151C0 16.0151 0 21.2341 0.658933 23.7118C1.02807 25.0824 2.10863 26.1632 3.47948 26.5324C6.00974 27.2177 15.9999 27.2177 15.9999 27.2177L16 26.2177L15.8894 26.2175C15.8164 26.2173 15.7087 26.217 15.5705 26.2164C15.2942 26.215 14.8961 26.2124 14.4104 26.207C13.4385 26.1964 12.1175 26.1751 10.719 26.1325C9.31887 26.0899 7.84922 26.0262 6.57761 25.9313C5.27832 25.8345 4.26932 25.7103 3.7409 25.5672L3.73949 25.5668C2.71336 25.2905 1.90183 24.4792 1.62494 23.4533C1.32587 22.3277 1.1636 20.5012 1.08106 18.8833C1.04055 18.0892 1.02025 17.3702 1.0101 16.8498C1.00503 16.5898 1.0025 16.3798 1.00124 16.2355C1.00062 16.1633 1.0003 16.1075 1.00015 16.0702L1.00001 16.0281L1.00001 16.0021L1.00015 15.9603C1.0003 15.9231 1.00062 15.8677 1.00124 15.7958C1.0025 15.6521 1.00503 15.4431 1.0101 15.1842C1.02025 14.6657 1.04054 13.9493 1.08106 13.1567C1.16351 11.5438 1.32564 9.7162 1.62527 8.57564C1.90258 7.54915 2.74107 6.71324 3.73889 6.43739C4.26411 6.30007 5.2691 6.18095 6.5636 6.08802C7.8347 5.99676 9.30572 5.93547 10.7078 5.89447C12.1082 5.8535 13.4319 5.833 14.406 5.82274C14.8929 5.81761 15.292 5.81505 15.569 5.81377C15.7076 5.81313 15.8156 5.81281 15.8888 5.81265L16 5.8125L15.9997 4.8125C15.9997 4.8125 5.98337 4.8125 3.47923 5.47168C2.135 5.84057 1.02783 6.94774 0.658933 8.31834C0 10.8222 0 16.0151 0 16.0151Z" fill="white"/>
<path fill-rule="evenodd" clip-rule="evenodd" d="M30.3762 8.58242L30.375 8.5782C30.0988 7.55169 29.2869 6.73988 28.2603 6.46339L28.2564 6.46234C27.7361 6.31994 26.732 6.19577 25.4332 6.09883C24.1628 6.00402 22.6924 5.94032 21.2906 5.8977C19.8904 5.85512 18.5669 5.83381 17.593 5.82314C17.1062 5.81782 16.7072 5.81515 16.4302 5.81382C16.2917 5.81316 16.1837 5.81283 16.1105 5.81266L16 5.8125L15.9997 4.8125C15.9997 4.8125 26.0162 4.8125 28.5204 5.4978C29.891 5.86694 30.9718 6.9475 31.3407 8.31834C32.0262 10.8222 31.9999 16.0415 31.9999 16.0415C31.9999 16.0415 31.9999 21.2341 31.3409 23.7382C30.9718 25.1088 29.8912 26.1896 28.5204 26.5585C26.0162 27.2177 15.9999 27.2177 15.9999 27.2177L16 26.2177L16.1109 26.2175C16.1841 26.2174 16.2921 26.217 16.4306 26.2164C16.7077 26.2151 17.1067 26.2126 17.5936 26.2074C18.5677 26.1972 19.8914 26.1767 21.2919 26.1357C22.6939 26.0947 24.1649 26.0334 25.436 25.9422C26.7326 25.8491 27.7388 25.7297 28.2633 25.5921C29.2876 25.3154 30.0976 24.5053 30.3746 23.4809C30.6742 22.3403 30.8364 20.5126 30.9188 18.8997C30.9593 18.1072 30.9796 17.3907 30.9898 16.8724C30.9948 16.6134 30.9974 16.4044 30.9986 16.2607C30.9993 16.1889 30.9996 16.1334 30.9997 16.0962L30.9999 16.0544L30.9999 16.0364L30.9999 16.0235L31 15.9816C31 15.9443 31 15.8886 30.9997 15.8165C30.9991 15.6723 30.9975 15.4624 30.9934 15.2024C30.9853 14.682 30.9674 13.9628 30.9286 13.1677C30.8493 11.5465 30.6867 9.71643 30.3762 8.58242ZM0 16.0151C0 16.0151 0 21.2341 0.658933 23.7118C1.02807 25.0824 2.10863 26.1632 3.47948 26.5324C6.00974 27.2177 15.9999 27.2177 15.9999 27.2177L16 26.2177L15.8894 26.2175C15.8164 26.2173 15.7087 26.217 15.5705 26.2164C15.2942 26.215 14.8961 26.2124 14.4104 26.207C13.4385 26.1964 12.1175 26.1751 10.719 26.1325C9.31887 26.0899 7.84922 26.0262 6.57761 25.9313C5.27832 25.8345 4.26932 25.7103 3.7409 25.5672L3.73949 25.5668C2.71336 25.2905 1.90183 24.4792 1.62494 23.4533C1.32587 22.3277 1.1636 20.5012 1.08106 18.8833C1.04055 18.0892 1.02025 17.3702 1.0101 16.8498C1.00503 16.5898 1.0025 16.3798 1.00124 16.2355C1.00062 16.1633 1.0003 16.1075 1.00015 16.0702L1.00001 16.0281L1.00001 16.0021L1.00015 15.9603C1.0003 15.9231 1.00062 15.8677 1.00124 15.7958C1.0025 15.6521 1.00503 15.4431 1.0101 15.1842C1.02025 14.6657 1.04054 13.9493 1.08106 13.1567C1.16351 11.5438 1.32564 9.7162 1.62527 8.57564C1.90258 7.54915 2.74107 6.71324 3.73889 6.43739C4.26411 6.30007 5.2691 6.18095 6.5636 6.08802C7.8347 5.99676 9.30572 5.93547 10.7078 5.89447C12.1082 5.8535 13.4319 5.833 14.406 5.82274C14.8929 5.81761 15.292 5.81505 15.569 5.81377C15.7076 5.81313 15.8156 5.81281 15.8888 5.81265L16 5.8125L15.9997 4.8125C15.9997 4.8125 5.98337 4.8125 3.47923 5.47168C2.135 5.84057 1.02783 6.94774 0.658933 8.31834C0 10.8222 0 16.0151 0 16.0151Z" fill="url(#paint0_linear_1_630)"/>
<path fill-rule="evenodd" clip-rule="evenodd" d="M21.139 16.0151L12.8096 11.2178V20.8125L21.139 16.0151ZM19.1354 16.0151L13.8096 12.9477V19.0825L19.1354 16.0151Z" fill="white"/>
<path fill-rule="evenodd" clip-rule="evenodd" d="M21.139 16.0151L12.8096 11.2178V20.8125L21.139 16.0151ZM19.1354 16.0151L13.8096 12.9477V19.0825L19.1354 16.0151Z" fill="url(#paint1_linear_1_630)"/>
</g>
<defs>
<linearGradient id="paint0_linear_1_630" x1="16" y1="4.8125" x2="16" y2="27.2177" gradientUnits="userSpaceOnUse">
<stop stop-color="white"/>
<stop offset="1" stop-color="white" stop-opacity="0"/>
</linearGradient>
<linearGradient id="paint1_linear_1_630" x1="16.9743" y1="11.2178" x2="16.9743" y2="20.8125" gradientUnits="userSpaceOnUse">
<stop stop-color="white"/>
<stop offset="1" stop-color="white" stop-opacity="0"/>
</linearGradient>
<clipPath id="clip0_1_630">
<rect width="32" height="32" fill="white"/>
</clipPath>
</defs>
</svg>
